<?xml version="1.0" standalone="no"?>
<!DOCTYPE svg PUBLIC "-//W3C//DTD SVG 20010904//EN"
 "http://www.w3.org/TR/2001/REC-SVG-20010904/DTD/svg10.dtd">
<svg version="1.0" xmlns="http://www.w3.org/2000/svg"
 width="32.000000pt" height="32.000000pt" viewBox="0 0 32.000000 32.000000"
 preserveAspectRatio="xMidYMid meet">

<g transform="translate(0.000000,32.000000) scale(0.100000,-0.100000)"
fill="#FF0000" stroke="none">
<path d="M92 304 c-107 -55 -121 -198 -26 -271 96 -73 238 -10 251 111 14 119
-120 214 -225 160z m36 -67 c3 -12 -4 -20 -18 -24 -54 -14 -40 -111 19 -131
104 -36 165 112 64 155 -20 8 -33 17 -29 20 3 3 19 0 36 -7 73 -30 79 -140 9
-176 -87 -45 -176 37 -140 128 5 13 12 31 15 41 7 23 40 18 44 -6z m62 -52
c26 -32 -13 -81 -47 -59 -23 14 -28 41 -13 59 16 19 44 19 60 0z"/>
<path d="M95 239 c-10 -15 3 -25 16 -12 7 7 7 13 1 17 -6 3 -14 1 -17 -5z"/>
</g>
</svg>
